<?xml version="1.0" encoding="UTF-8"?>
<svg version="1.1" xmlns="http://www.w3.org/2000/svg" width="500" height="500">
<path d="M0 0 C165 0 330 0 500 0 C500 165 500 330 500 500 C335 500 170 500 0 500 C0 335 0 170 0 0 Z " fill="#0E1824" transform="translate(0,0)"/>
<path d="M0 0 C0.66 0 1.32 0 2 0 C3.32 4.95 4.64 9.9 6 15 C8.248125 15.350625 10.49625 15.70125 12.8125 16.0625 C32.65412783 19.59756234 48.61346346 27.85730307 63 42 C63.69867188 42.68578125 64.39734375 43.3715625 65.1171875 44.078125 C79.14201824 58.81238298 85.84535328 78.06715141 87 98 C87.94875 98.103125 88.8975 98.20625 89.875 98.3125 C94.73491554 98.9910919 99.33803874 100.5085476 104 102 C99.00934748 105.32710168 93.07888388 107.58827908 87 107 C87.1546875 108.7015625 87.1546875 108.7015625 87.3125 110.4375 C87.22029798 130.04579677 74.81996416 150.83423964 61.8125 164.625 C46.24110236 179.55537955 27.01931317 186.59146273 6 190 C4.68 194.62 3.36 199.24 2 204 C1.34 204 0.68 204 0 204 C-0.6700834 201.87607494 -1.33596797 199.75082476 -2 197.625 C-2.556875 195.84996094 -2.556875 195.84996094 -3.125 194.0390625 C-4 191 -4 191 -4 189 C-4.72960937 188.99742187 -5.45921875 188.99484375 -6.2109375 188.9921875 C-27.38445983 188.20798297 -47.21533252 177.901044 -62 163 C-76.40661775 147.43325198 -83.68293812 128.85355691 -86 108 C-91.28 106.35 -96.56 104.7 -102 103 C-99.34072316 100.34072316 -96.40591734 99.8189086 -92.875 98.875 C-92.21628906 98.69324219 -91.55757812 98.51148438 -90.87890625 98.32421875 C-89.25423544 97.87684563 -87.62732107 97.43763465 -86 97 C-85.97873047 96.08734375 -85.97873047 96.08734375 -85.95703125 95.15625 C-85.0042307 77.64532094 -77.40020575 60.19349654 -66 47 C-65.45730469 46.32582031 -64.91460937 45.65164062 -64.35546875 44.95703125 C-52.01548784 30.0161176 -32.35876529 18.80131949 -12.96484375 16.41015625 C-9.96633795 16.17197244 -7.00705857 16.01062565 -4 16 C-3.81824219 15.02160156 -3.81824219 15.02160156 -3.6328125 14.0234375 C-2.71056011 9.21353658 -1.69832723 4.60974535 0 0 Z " fill="#078A8F" transform="translate(249,94)"/>
<path d="M0 0 C0.66 0 1.32 0 2 0 C3.32 4.95 4.64 9.9 6 15 C8.248125 15.350625 10.49625 15.70125 12.8125 16.0625 C32.65412783 19.59756234 48.61346346 27.85730307 63 42 C63.69867188 42.68578125 64.39734375 43.3715625 65.1171875 44.078125 C79.14201824 58.81238298 85.84535328 78.06715141 87 98 C87.94875 98.103125 88.8975 98.20625 89.875 98.3125 C94.73491554 98.9910919 99.33803874 100.5085476 104 102 C99.00934748 105.32710168 93.07888388 107.58827908 87 107 C87.1546875 108.7015625 87.1546875 108.7015625 87.3125 110.4375 C87.22029798 130.04579677 74.81996416 150.83423964 61.8125 164.625 C46.24110236 179.55537955 27.01931317 186.59146273 6 190 C4.68 194.62 3.36 199.24 2 204 C1.34 204 0.68 204 0 204 C-0.6700834 201.87607494 -1.33596797 199.75082476 -2 197.625 C-2.556875 195.84996094 -2.556875 195.84996094 -3.125 194.0390625 C-4 191 -4 191 -4 189 C-4.72960937 188.99742187 -5.45921875 188.99484375 -6.2109375 188.9921875 C-27.38445983 188.20798297 -47.21533252 177.901044 -62 163 C-76.40661775 147.43325198 -83.68293812 128.85355691 -86 108 C-91.28 106.35 -96.56 104.7 -102 103 C-99.34072316 100.34072316 -96.40591734 99.8189086 -92.875 98.875 C-92.21628906 98.69324219 -91.55757812 98.51148438 -90.87890625 98.32421875 C-89.25423544 97.87684563 -87.62732107 97.43763465 -86 97 C-85.97873047 96.08734375 -85.97873047 96.08734375 -85.95703125 95.15625 C-85.0042307 77.64532094 -77.40020575 60.19349654 -66 47 C-65.45730469 46.32582031 -64.91460937 45.65164062 -64.35546875 44.95703125 C-52.01548784 30.0161176 -32.35876529 18.80131949 -12.96484375 16.41015625 C-9.96633795 16.17197244 -7.00705857 16.01062565 -4 16 C-3.81824219 15.02160156 -3.81824219 15.02160156 -3.6328125 14.0234375 C-2.71056011 9.21353658 -1.69832723 4.60974535 0 0 Z M-12 31 C-13.00740234 31.17789063 -13.00740234 31.17789063 -14.03515625 31.359375 C-31.66556108 34.75637015 -47.08207938 44.84753831 -58.01171875 58.953125 C-64.60781437 69.06109078 -70.24386382 80.8068088 -70 93 C-70.495 93.495 -70.495 93.495 -71 94 C-71.08631874 95.34267413 -71.10706473 96.68974322 -71.09765625 98.03515625 C-71.09443359 98.84404297 -71.09121094 99.65292969 -71.08789062 100.48632812 C-71.07951172 101.33646484 -71.07113281 102.18660156 -71.0625 103.0625 C-71.05798828 103.91650391 -71.05347656 104.77050781 -71.04882812 105.65039062 C-71.03700373 107.76695663 -71.01906769 109.88348685 -71 112 C-70.34 112.33 -69.68 112.66 -69 113 C-69.19722656 113.69867188 -69.39445312 114.39734375 -69.59765625 115.1171875 C-70.99716281 125.14471997 -63.74206036 136.80989184 -58.08203125 144.66015625 C-45.89080525 160.2941656 -30.55125144 171.22528845 -10.66796875 174.55859375 C5.79327891 176.53955327 23.85430785 174.31863778 38 165 C39.77303043 163.14182711 41.41152369 161.20238317 43.05639648 159.22998047 C45.1186623 156.86385361 47.30454248 154.73643253 49.59375 152.58984375 C60.63585742 142.17156536 70.17679912 132.92273717 71.875 117.125 C71.89304687 116.34382813 71.91109375 115.56265625 71.9296875 114.7578125 C72 113 72 113 73 112 C73.09860131 110.59651265 73.13078937 109.18819523 73.1328125 107.78125 C73.13474609 106.50701172 73.13474609 106.50701172 73.13671875 105.20703125 C73.13285156 104.31371094 73.12898437 103.42039062 73.125 102.5 C73.12886719 101.60667969 73.13273438 100.71335937 73.13671875 99.79296875 C73.13542969 98.94347656 73.13414062 98.09398437 73.1328125 97.21875 C73.13112061 96.0421582 73.13112061 96.0421582 73.12939453 94.84179688 C73.20107442 92.98247012 73.20107442 92.98247012 72 92 C71.89163547 90.56416999 71.81423833 89.1259798 71.75 87.6875 C70.15184899 70.68898473 57.86932052 55.51667487 45.3125 44.8125 C32.28490227 34.80373907 17.21662864 29.78232536 0.875 29.875 C0.18535156 29.87113281 -0.50429687 29.86726563 -1.21484375 29.86328125 C-4.94564828 29.87041472 -8.37302086 30.13553865 -12 31 Z " fill="#02E7E6" transform="translate(249,94)"/>
<path d="M0 0 C-0.66 2.64 -1.32 5.28 -2 8 C-0.72125 8.061875 0.5575 8.12375 1.875 8.1875 C2.59429687 8.22230469 3.31359375 8.25710937 4.0546875 8.29296875 C4.69664062 8.19628906 5.33859375 8.09960938 6 8 C6.66 7.01 7.32 6.02 8 5 C8.66 5.33 9.32 5.66 10 6 C9.505 3.525 9.505 3.525 9 1 C14.27315333 1.4452885 19.01770224 2.08373163 24 4 C24 4.66 24 5.32 24 6 C24.73992187 6.25136719 25.47984375 6.50273437 26.2421875 6.76171875 C32.48348539 9.56411454 36.61319215 15.24242665 40 21 C42.06700655 22.32793606 42.06700655 22.32793606 44 23 C43.34 23.33 42.68 23.66 42 24 C42.2165625 24.68707031 42.433125 25.37414062 42.65625 26.08203125 C42.9346875 26.98308594 43.213125 27.88414062 43.5 28.8125 C43.7784375 29.70582031 44.056875 30.59914062 44.34375 31.51953125 C45 34 45 34 45 37 C41.63672037 36.43945339 39.00887781 35.58158962 36 34 C36.14076315 35.9587043 36.2877676 37.91696093 36.4375 39.875 C36.51871094 40.96554688 36.59992188 42.05609375 36.68359375 43.1796875 C36.83001703 45.94728971 36.83001703 45.94728971 38 48 C38.99 47.67 39.98 47.34 41 47 C42.32 47 43.64 47 45 47 C44.57312017 48.89825285 44.13300518 50.79353183 43.6875 52.6875 C43.44386719 53.74324219 43.20023437 54.79898438 42.94921875 55.88671875 C40.24165325 64.76708789 32.49630076 72.97715252 24.8203125 78.046875 C21.37621755 79.85022085 17.71095909 80.89018046 14 82 C12.32636023 82.64896236 10.65538958 83.30580437 9 84 C8.77963136 80.14354879 9.39644899 77.50776784 11 74 C10.154375 74.515625 9.30875 75.03125 8.4375 75.5625 C4.41263214 77.24562656 2.19785702 76.92352855 -2 76 C-1.505 79.465 -1.505 79.465 -1 83 C-1.60328125 82.855625 -2.2065625 82.71125 -2.828125 82.5625 C-4.02695313 82.2840625 -4.02695313 82.2840625 -5.25 82 C-6.43335938 81.7215625 -6.43335938 81.7215625 -7.640625 81.4375 C-10.25556002 80.87845172 -10.25556002 80.87845172 -14 81 C-15.7109375 79.86328125 -15.7109375 79.86328125 -17.375 78.3125 C-19.58623423 76.29026015 -21.75451212 74.41148055 -24.125 72.5625 C-27.45162681 69.59746306 -29.59698785 66.74587188 -32 63 C-32 62.34 -32 61.68 -32 61 C-33.32 60.67 -34.64 60.34 -36 60 C-35.34 60 -34.68 60 -34 60 C-34.2165625 59.40832031 -34.433125 58.81664062 -34.65625 58.20703125 C-37.42179262 50.35852373 -37.42179262 50.35852373 -37 46 C-34.69 46.66 -32.38 47.32 -30 48 C-30 47.31292969 -30 46.62585938 -30 45.91796875 C-30 42.27864583 -30 38.63932292 -30 35 C-30.8971875 35.495 -30.8971875 35.495 -31.8125 36 C-34 37 -34 37 -37 37 C-36.9278125 36.32453125 -36.855625 35.6490625 -36.78125 34.953125 C-36.6884375 34.06109375 -36.595625 33.1690625 -36.5 32.25 C-36.4071875 31.36828125 -36.314375 30.4865625 -36.21875 29.578125 C-35.94363687 26.76695165 -35.94363687 26.76695165 -36 23 C-34 20.8125 -34 20.8125 -32.62109375 19.5546875 C-30.61773357 17.63339268 -28.86498103 15.54789046 -27.0625 13.4375 C-23.93962984 9.88368557 -21.04635626 7.40854539 -17 5 C-16.34 4.34 -15.68 3.68 -15 3 C-12.85322229 2.38421376 -10.68163253 1.85283544 -8.5 1.375 C-7.3346875 1.11460937 -6.169375 0.85421875 -4.96875 0.5859375 C-2 0 -2 0 0 0 Z " fill="#096F75" transform="translate(246,155)"/>
<path d="M0 0 C7.06434655 0.6150338 13.53786131 2.45652933 20.3125 4.5 C21.39595703 4.82097656 22.47941406 5.14195312 23.59570312 5.47265625 C27.41276998 6.60662639 31.2222357 7.74074523 35 9 C35.02911321 12.0833134 35.04683682 15.16659125 35.0625 18.25 C35.07087891 19.12269531 35.07925781 19.99539062 35.08789062 20.89453125 C35.09111328 21.73886719 35.09433594 22.58320313 35.09765625 23.453125 C35.10289307 24.22817383 35.10812988 25.00322266 35.11352539 25.80175781 C34.99961043 28.00754333 34.57860369 29.87430069 34 32 C33.79375 33.27875 33.5875 34.5575 33.375 35.875 C30.26700785 49.41145027 22.5354469 58.44487618 12.75 67.6875 C11.64939479 68.75285856 10.55042705 69.81991142 9.453125 70.88867188 C7.45591141 72.82940318 5.44885875 74.75726287 3.43261719 76.6784668 C2.03614526 78.01116969 0.65135151 79.35692219 -0.69750977 80.73779297 C-9.30896721 89.08291668 -26.31904718 91.34794368 -37.875 91.3125 C-44.62601626 91.18699187 -44.62601626 91.18699187 -47 90 C-47.92999463 87.35607296 -48.74509924 84.75658231 -49.5 82.0625 C-49.72212158 81.29067383 -49.94424316 80.51884766 -50.1730957 79.72363281 C-51.55534054 74.83789151 -52.70179734 69.96068344 -53.59765625 64.9609375 C-54.10239131 62.50096662 -54.93947357 60.27255664 -56 58 C-55.34 57.34 -54.68 56.68 -54 56 C-50.37 56.99 -46.74 57.98 -43 59 C-43.33 56.69 -43.66 54.38 -44 52 C-42.824375 52.226875 -41.64875 52.45375 -40.4375 52.6875 C-35.7883386 53.30075837 -33.10683488 52.1389765 -29 50 C-29.165 50.7425 -29.33 51.485 -29.5 52.25 C-30.11925696 55.19006578 -30.11925696 55.19006578 -30 59 C-25.16026883 58.52551655 -21.97052286 57.80841861 -18 55 C-17.41605469 54.61070312 -16.83210938 54.22140625 -16.23046875 53.8203125 C-7.43371816 47.67820262 -0.50215504 40.59380156 2 30 C2.66666667 28 3.33333333 26 4 24 C-0.95 25.485 -0.95 25.485 -6 27 C-5 25 -5 25 -4 24 C-4.32777203 22.66528865 -4.66228433 21.33223009 -5 20 C-5.12447135 16.99277207 -5.04428988 14.01171196 -5 11 C-2.03 11.99 0.94 12.98 4 14 C2.68 9.38 1.36 4.76 0 0 Z " fill="#078B8F" transform="translate(287,178)"/>
<path d="M0 0 C6.27157217 1.3587358 12.4843489 2.85842834 18.6875 4.5 C19.91049805 4.81904297 19.91049805 4.81904297 21.15820312 5.14453125 C34.079265 8.54975855 34.079265 8.54975855 38 15 C40.19057608 17.37312409 42.40209059 19.5369484 44.95703125 21.515625 C53.32850006 28.16309931 55.027592 35.82746747 56.49609375 46.09375 C57.10636635 49.61346172 58.15908783 52.82391171 59.4140625 56.16015625 C60 58 60 58 60 61 C41.89259438 59.60712264 26.39300782 49.98637418 14.66552734 36.4609375 C6.33782281 26.33668731 0.32382233 15.23822334 -1 2 C-0.67 1.34 -0.34 0.68 0 0 Z " fill="#07898E" transform="translate(180,207)"/>
<path d="M0 0 C8 0 8 0 9.7421875 1.37109375 C10.11601562 2.05300781 10.48984375 2.73492187 10.875 3.4375 C11.3390625 4.23929687 11.803125 5.04109375 12.28125 5.8671875 C12.8484375 6.90101563 13.415625 7.93484375 14 9 C14.85982209 10.46374475 15.7248318 11.92444907 16.59375 13.3828125 C19.08853168 17.57371203 21.55002928 21.78275791 24 26 C28.2234141 21.21278062 31.14110355 15.72475696 34.25 10.1875 C34.80429687 9.20845703 35.35859375 8.22941406 35.9296875 7.22070312 C37.29040171 4.81599267 38.64702556 2.4090709 40 0 C42.97 0 45.94 0 49 0 C49 14.52 49 29.04 49 44 C46.03 44 43.06 44 40 44 C39.505 31.625 39.505 31.625 39 19 C36.16997959 24.08365137 36.16997959 24.08365137 33.34643555 29.17089844 C28.86677331 37.17641682 28.86677331 37.17641682 27 39 C24.53125 39.52734375 24.53125 39.52734375 22 39 C20.15625 37.12890625 20.15625 37.12890625 18.5 34.5625 C17.9534375 33.73878906 17.406875 32.91507812 16.84375 32.06640625 C14.46099412 28.10356014 12.24562861 24.0421315 10 20 C9.67 27.92 9.34 35.84 9 44 C6.03 44 3.06 44 0 44 C0 29.48 0 14.96 0 0 Z " fill="#00FBF8" transform="translate(272,325)"/>
<path d="M0 0 C3.96 -0.0825 7.92 -0.165 12 -0.25 C13.84851563 -0.30462402 13.84851563 -0.30462402 15.734375 -0.36035156 C22.66474865 -0.42992461 27.13568256 0.22763205 33 4 C37.50060286 8.84680308 38.36123579 11.99192942 38.27734375 18.4609375 C37.86623556 22.22460402 36.5171364 24.21790187 34 27 C28.33292635 31.27921888 24.25708527 32.14679469 17.3125 32.0625 C16.2596582 32.05573242 16.2596582 32.05573242 15.18554688 32.04882812 C13.45699462 32.03706927 11.72848635 32.01913454 10 32 C10 35.96 10 39.92 10 44 C6.7 44 3.4 44 0 44 C0 29.48 0 14.96 0 0 Z " fill="#00FAF7" transform="translate(179,325)"/>
<path d="M0 0 C7.06434655 0.6150338 13.53786131 2.45652933 20.3125 4.5 C21.39595703 4.82097656 22.47941406 5.14195312 23.59570312 5.47265625 C27.41276998 6.60662639 31.2222357 7.74074523 35 9 C35 15.27 35 21.54 35 28 C28.13669071 30.68564277 21.23891746 32.8518202 14.125 34.75 C13.30475342 34.97260498 12.48450684 35.19520996 11.6394043 35.42456055 C10.853479 35.62992432 10.06755371 35.83528809 9.2578125 36.046875 C8.5580127 36.23088867 7.85821289 36.41490234 7.13720703 36.60449219 C5 37 5 37 0 37 C1.32 32.71 2.64 28.42 4 24 C-0.95 25.485 -0.95 25.485 -6 27 C-5 25 -5 25 -4 24 C-4.32777203 22.66528865 -4.66228433 21.33223009 -5 20 C-5.12447135 16.99277207 -5.04428988 14.01171196 -5 11 C-2.03 11.99 0.94 12.98 4 14 C2.68 9.38 1.36 4.76 0 0 Z " fill="#189A9E" transform="translate(287,178)"/>
<path d="M0 0 C0.72445312 0.00966797 1.44890625 0.01933594 2.1953125 0.02929688 C5.36507051 0.09655189 7.97718574 0.30489525 11 1.3125 C12.5804381 4.20996985 13.03059019 6.59209431 13.390625 9.8828125 C14.07171423 15.64572318 15.76354848 21.12137516 17.359375 26.68554688 C17.58367187 27.49701172 17.80796875 28.30847656 18.0390625 29.14453125 C18.35157959 30.23858276 18.35157959 30.23858276 18.67041016 31.35473633 C19 33.3125 19 33.3125 18 36.3125 C16.96875 35.838125 15.9375 35.36375 14.875 34.875 C11.61465838 33.46727612 8.53948917 32.74414502 5 32.3125 C5.66 34.2925 6.32 36.2725 7 38.3125 C6.01 38.3125 5.02 38.3125 4 38.3125 C3.34 38.9725 2.68 39.6325 2 40.3125 C-3.33333333 40.64583333 -3.33333333 40.64583333 -6 39.3125 C-5.125 33.5625 -5.125 33.5625 -4 31.3125 C-4.91523438 31.60125 -5.83046875 31.89 -6.7734375 32.1875 C-7.96195313 32.55875 -9.15046875 32.93 -10.375 33.3125 C-11.55835938 33.68375 -12.74171875 34.055 -13.9609375 34.4375 C-17 35.3125 -17 35.3125 -19 35.3125 C-10.86377929 -0.43493778 -10.86377929 -0.43493778 0 0 Z " fill="#18989C" transform="translate(250,123.6875)"/>
<path d="M0 0 C0.33 0.99 0.66 1.98 1 3 C0.01 4.485 0.01 4.485 -1 6 C-1 7.32 -1 8.64 -1 10 C-0.443125 9.690625 0.11375 9.38125 0.6875 9.0625 C3.1337978 7.93852533 5.36894195 7.52621161 8 7 C10.23408113 6.00916033 10.23408113 6.00916033 12 5 C10.75745525 11.42556011 9.17426665 17.76788521 7.625 24.125 C7.47224609 24.77194824 7.31949219 25.41889648 7.16210938 26.08544922 C6.71462781 27.97867707 6.25203907 29.86831412 5.7890625 31.7578125 C5.51787598 32.8833252 5.24668945 34.00883789 4.96728516 35.16845703 C4.0025609 37.99250346 3.42793364 39.3067732 1 41 C-1.77398801 41.24450681 -4.29882179 41.32819426 -7.0625 41.25 C-8.16174805 41.24226563 -8.16174805 41.24226563 -9.28320312 41.234375 C-14.69013127 41.15493437 -14.69013127 41.15493437 -17 40 C-17.92999463 37.35607296 -18.74509924 34.75658231 -19.5 32.0625 C-19.72212158 31.29067383 -19.94424316 30.51884766 -20.1730957 29.72363281 C-21.55534054 24.83789151 -22.70179734 19.96068344 -23.59765625 14.9609375 C-24.10239131 12.50096662 -24.93947357 10.27255664 -26 8 C-25.34 7.34 -24.68 6.68 -24 6 C-18.555 7.485 -18.555 7.485 -13 9 C-13.33 6.69 -13.66 4.38 -14 2 C-12.205625 2.3403125 -12.205625 2.3403125 -10.375 2.6875 C-6.1290804 3.24657126 -3.66446727 2.29029204 0 0 Z " fill="#18989C" transform="translate(257,228)"/>
<path d="M0 0 C-0.99 4.29 -1.98 8.58 -3 13 C-0.03 12.01 2.94 11.02 6 10 C5.34 14.62 4.68 19.24 4 24 C-1 23 -1 23 -3 22 C-2.7834375 22.75925781 -2.566875 23.51851562 -2.34375 24.30078125 C-2.0653125 25.29464844 -1.786875 26.28851563 -1.5 27.3125 C-1.2215625 28.29863281 -0.943125 29.28476563 -0.65625 30.30078125 C0 33 0 33 0 36 C-6.2230368 35.29795824 -12.09839984 33.73566396 -18.125 32.0625 C-19.10082031 31.79759766 -20.07664063 31.53269531 -21.08203125 31.25976562 C-25.539676 30.03436942 -29.68995149 28.7240194 -34 27 C-34 21.06 -34 15.12 -34 9 C-24.98553991 4.49276995 -24.98553991 4.49276995 -20.29296875 3.26171875 C-19.29458984 2.99939453 -18.29621094 2.73707031 -17.26757812 2.46679688 C-16.25115234 2.20962891 -15.23472656 1.95246094 -14.1875 1.6875 C-13.15173828 1.41099609 -12.11597656 1.13449219 -11.04882812 0.84960938 C-3.3833362 -1.12777873 -3.3833362 -1.12777873 0 0 Z " fill="#189498" transform="translate(212,179)"/>
<path d="M0 0 C3.63 0 7.26 0 11 0 C15.96168855 9.43266064 20.04122037 19.11476329 24 29 C26.43820028 26.56179972 27.24657716 24.34019441 28.56640625 21.15234375 C29.05173828 19.99025391 29.53707031 18.82816406 30.03710938 17.63085938 C30.54048828 16.41205078 31.04386719 15.19324219 31.5625 13.9375 C32.5606985 11.5286321 33.56285526 9.12149532 34.56640625 6.71484375 C35.00927979 5.64355225 35.45215332 4.57226074 35.90844727 3.46850586 C37 1 37 1 38 0 C39.68608966 -0.07205511 41.37500659 -0.08386068 43.0625 -0.0625 C43.98160156 -0.05347656 44.90070313 -0.04445313 45.84765625 -0.03515625 C46.55792969 -0.02355469 47.26820313 -0.01195312 48 0 C46.42203617 5.0326007 44.43691795 9.81361359 42.33984375 14.64453125 C41.81494102 15.86011971 41.81494102 15.86011971 41.2794342 17.1002655 C40.54355508 18.80264485 39.8064265 20.50448459 39.06811523 22.20581055 C37.93430169 24.81987387 36.80576953 27.43617315 35.67773438 30.05273438 C34.96125132 31.70846917 34.2444652 33.36407286 33.52734375 35.01953125 C33.18879868 35.80487747 32.8502536 36.59022369 32.50144958 37.39936829 C30.11502727 42.88497273 30.11502727 42.88497273 29 44 C27.31391034 44.07205511 25.62499341 44.08386068 23.9375 44.0625 C23.01839844 44.05347656 22.09929687 44.04445313 21.15234375 44.03515625 C20.44207031 44.02355469 19.73179687 44.01195312 19 44 C14.24720155 34.15969898 9.86843203 24.16666491 5.5625 14.125 C5.2878894 13.48614868 5.01327881 12.84729736 4.73034668 12.18908691 C3.94429018 10.35879046 3.1615296 8.52707958 2.37890625 6.6953125 C1.9207251 5.62297363 1.46254395 4.55063477 0.99047852 3.44580078 C0 1 0 1 0 0 Z " fill="#00F7F5" transform="translate(219,325)"/>
<path d="M0 0 C0.495 0.99 0.495 0.99 1 2 C1.33 2 1.66 2 2 2 C2.042721 3.66611905 2.04063832 5.33382885 2 7 C0.03014806 8.96985194 -3.43661139 9.01839695 -6.0625 9.5625 C-7.35285156 9.83191406 -8.64320313 10.10132812 -9.97265625 10.37890625 C-10.97167969 10.58386719 -11.97070312 10.78882812 -13 11 C-13 11.99 -13 12.98 -13 14 C-14.06154297 13.67708984 -14.06154297 13.67708984 -15.14453125 13.34765625 C-21.54356707 12.56856707 -27.94205223 17.47456702 -32.8984375 21.1484375 C-34.59890057 22.52975208 -36.28207251 23.93282113 -37.94140625 25.36328125 C-40 27 -40 27 -43 28 C-43.70195761 29.31509609 -44.36307734 30.65220486 -45 32 C-46.20672388 33.45639089 -47.43873147 34.89199513 -48.6875 36.3125 C-54.91008951 43.97194199 -59.1420008 53.05009414 -61.5 62.625 C-62.45412213 66.20295799 -63.52396158 67.89297119 -66.5 70.125 C-70 72 -70 72 -73 72 C-71.96105858 69.28276858 -70.87753671 66.78446461 -69.4375 64.25 C-68.12171096 61.2751726 -67.81332915 59.75664477 -67.625 56.625 C-67.27360455 52.19143607 -65.78523503 49.42852868 -63.25390625 45.82421875 C-61.96249626 44.0773154 -61.96249626 44.0773154 -61.25805664 42.23681641 C-59.52210094 39.15029863 -57.11761112 36.85201147 -54.6171875 34.38671875 C-54.08408966 33.85407913 -53.55099182 33.32143951 -53.0017395 32.7726593 C-51.87266483 31.64660079 -50.74116559 30.5229688 -49.60742188 29.40161133 C-47.89664129 27.70891256 -46.19382508 26.00852511 -44.4921875 24.30664062 C-28.13792706 8 -28.13792706 8 -24 8 C-23.401875 7.67 -22.80375 7.34 -22.1875 7 C-20 6 -20 6 -17.0625 6.0625 C-13.43447907 5.98845876 -11.90087918 5.11685778 -9 3 C-8.525625 2.443125 -8.05125 1.88625 -7.5625 1.3125 C-5.17739302 -0.69098986 -2.99633505 -0.19975567 0 0 Z " fill="#02D6D5" transform="translate(240,115)"/>
<path d="M0 0 C-3.87186027 14.71306904 -15.50760083 26.10334476 -28 34 C-33.47619048 37 -33.47619048 37 -37 37 C-36.9278125 36.32453125 -36.855625 35.6490625 -36.78125 34.953125 C-36.6884375 34.06109375 -36.595625 33.1690625 -36.5 32.25 C-36.4071875 31.36828125 -36.314375 30.4865625 -36.21875 29.578125 C-35.94363687 26.76695165 -35.94363687 26.76695165 -36 23 C-34 20.8125 -34 20.8125 -32.62109375 19.5546875 C-30.61773357 17.63339268 -28.86498103 15.54789046 -27.0625 13.4375 C-23.93962984 9.88368557 -21.04635626 7.40854539 -17 5 C-16.34 4.34 -15.68 3.68 -15 3 C-12.85322229 2.38421376 -10.68163253 1.85283544 -8.5 1.375 C-7.3346875 1.11460937 -6.169375 0.85421875 -4.96875 0.5859375 C-2 0 -2 0 0 0 Z " fill="#16242F" transform="translate(246,155)"/>
<path d="M0 0 C13.9616734 4.19669068 24.33410678 13.95912732 32 26 C32.44859375 26.67804688 32.8971875 27.35609375 33.359375 28.0546875 C36.10445599 32.43553592 36.10445599 32.43553592 35.59375 35.1953125 C35.3978125 35.79085937 35.201875 36.38640625 35 37 C34.22914063 36.77183594 33.45828125 36.54367188 32.6640625 36.30859375 C31.15972656 35.87740234 31.15972656 35.87740234 29.625 35.4375 C28.62726563 35.14746094 27.62953125 34.85742188 26.6015625 34.55859375 C24.0322836 33.72343518 24.0322836 33.72343518 22 35 C20.9790625 33.948125 20.9790625 33.948125 19.9375 32.875 C17.89117848 30.81128765 15.75314561 28.95907039 13.5 27.125 C9.93862521 24.11692414 7.49716283 20.93492325 5 17 C5 16.34 5 15.68 5 15 C3.68 14.67 2.36 14.34 1 14 C1.66 14 2.32 14 3 14 C2.7834375 13.40832031 2.566875 12.81664062 2.34375 12.20703125 C-0.42179262 4.35852373 -0.42179262 4.35852373 0 0 Z " fill="#15232E" transform="translate(209,201)"/>
<path d="M0 0 C5.27315333 0.4452885 10.01770224 1.08373163 15 3 C15 3.66 15 4.32 15 5 C15.73992187 5.25136719 16.47984375 5.50273437 17.2421875 5.76171875 C23.48348539 8.56411454 27.61319215 14.24242665 31 20 C33.06700655 21.32793606 33.06700655 21.32793606 35 22 C34.01 22.495 34.01 22.495 33 23 C33.2165625 23.68707031 33.433125 24.37414062 33.65625 25.08203125 C33.9346875 25.98308594 34.213125 26.88414062 34.5 27.8125 C34.7784375 28.70582031 35.056875 29.59914062 35.34375 30.51953125 C36 33 36 33 36 36 C25.92556974 34.55304413 16.7281173 26.23243955 10 19 C7.39356435 15.47075851 5.13458181 11.83038848 3 8 C2.6390625 7.35289062 2.278125 6.70578125 1.90625 6.0390625 C0.79891253 3.93717193 0 2.40553777 0 0 Z " fill="#182732" transform="translate(255,156)"/>
<path d="M0 0 C-0.42687983 1.89825285 -0.86699482 3.79353183 -1.3125 5.6875 C-1.55613281 6.74324219 -1.79976563 7.79898438 -2.05078125 8.88671875 C-4.75834675 17.76708789 -12.50369924 25.97715252 -20.1796875 31.046875 C-23.62378245 32.85022085 -27.28904091 33.89018046 -31 35 C-32.67363977 35.64896236 -34.34461042 36.30580437 -36 37 C-36.63214172 29.50844809 -31.31103338 23.88984029 -26.84765625 18.30859375 C-20.37651889 10.85939345 -10.53984074 0 0 0 Z " fill="#172531" transform="translate(291,202)"/>
<path d="M0 0 C11.90981786 -0.43047534 11.90981786 -0.43047534 16 3 C16.66 3.66 17.32 4.32 18 5 C17.66785714 11.08928571 17.66785714 11.08928571 15.625 13.875 C10.99880696 17.07774903 5.36061029 16.063066 0 16 C0 10.72 0 5.44 0 0 Z " fill="#0E2530" transform="translate(189,333)"/>
<path d="M0 0 C0 0.66 0 1.32 0 2 C-1.02738281 2.47308594 -2.05476563 2.94617188 -3.11328125 3.43359375 C-22.95285454 12.80121415 -34.99260841 25.59973825 -43 46 C-43.7133036 48.31950143 -44.38308044 50.6530234 -45 53 C-45.35835937 54.09441406 -45.71671875 55.18882812 -46.0859375 56.31640625 C-47.21901112 60.88259609 -47.45393104 65.25092341 -47.625 69.9375 C-47.68300781 71.24944336 -47.68300781 71.24944336 -47.7421875 72.58789062 C-47.8356107 74.72494631 -47.91885398 76.86244294 -48 79 C-48.33 79 -48.66 79 -49 79 C-49.67232225 54.68951701 -45.47655311 35.59013412 -28.5625 17.375 C-27.716875 16.59125 -26.87125 15.8075 -26 15 C-25.42765625 14.45730469 -24.8553125 13.91460937 -24.265625 13.35546875 C-17.92561707 7.53534147 -9.01215799 0 0 0 Z " fill="#00F3F1" transform="translate(225,127)"/>
<path d="M0 0 C1.9490625 0.6496875 1.9490625 0.6496875 3.9375 1.3125 C4.76507813 1.58449219 5.59265625 1.85648438 6.4453125 2.13671875 C8.03334603 2.67334782 9.61365092 3.23424309 11.1796875 3.83203125 C17.38241131 6.13817215 23.41496113 6.67687627 30 7 C30 7.33 30 7.66 30 8 C28.36804688 8.23783203 28.36804688 8.23783203 26.703125 8.48046875 C18.32866337 9.78339628 10.94057452 11.4149657 3.22265625 15.109375 C2.48917969 15.40328125 1.75570313 15.6971875 1 16 C0.34 15.67 -0.32 15.34 -1 15 C-0.01 14.67 0.98 14.34 2 14 C1.34 13.67 0.68 13.34 0 13 C0 8.71 0 4.42 0 0 Z " fill="#09B7B9" transform="translate(282,189)"/>
<path d="M0 0 C0.33 0 0.66 0 1 0 C1.09796875 0.94359375 1.1959375 1.8871875 1.296875 2.859375 C2.28574702 11.35003479 3.91921671 18.96902608 7 27 C6.01 27 5.02 27 4 27 C3.34 27.66 2.68 28.32 2 29 C-3.33333333 29.33333333 -3.33333333 29.33333333 -6 28 C-5.56830207 24.54641655 -4.89109645 21.73484353 -3.5625 18.5 C-1.21352734 12.60453922 -0.74715375 6.25851144 0 0 Z " fill="#0BBCBE" transform="translate(250,135)"/>
<path d="M0 0 C1 3 1 3 0.29296875 4.98046875 C-0.07183594 5.70878906 -0.43664062 6.43710938 -0.8125 7.1875 C-4.46087729 15.00005965 -5.4015275 22.43239366 -6 31 C-6.33 31 -6.66 31 -7 31 C-7.17015625 29.80503906 -7.3403125 28.61007812 -7.515625 27.37890625 C-8.78066815 18.94528522 -10.15431696 11.69136608 -14 4 C-13.67 3.34 -13.34 2.68 -13 2 C-11.96875 2.226875 -10.9375 2.45375 -9.875 2.6875 C-5.5162183 3.03901465 -3.67269225 2.23944649 0 0 Z " fill="#0ABFC0" transform="translate(257,228)"/>
<path d="M0 0 C0.66 0.33 1.32 0.66 2 1 C1.34 5.29 0.68 9.58 0 14 C-3.41904727 13.31619055 -6.51492103 12.59066275 -9.8125 11.5625 C-14.18063487 10.22651872 -18.55943102 9.06902586 -23 8 C-23 7.67 -23 7.34 -23 7 C-21.84242188 6.74605469 -20.68484375 6.49210938 -19.4921875 6.23046875 C-17.9530329 5.88322046 -16.41397547 5.53554133 -14.875 5.1875 C-14.11445313 5.02185547 -13.35390625 4.85621094 -12.5703125 4.68554688 C-7.9788886 3.636644 -4.22313515 2.13724013 0 0 Z " fill="#08A5A8" transform="translate(216,189)"/>
<path d="M0 0 C0.66 0 1.32 0 2 0 C3.2175293 1.35766602 3.2175293 1.35766602 4.57421875 3.25390625 C5.07759766 3.94419922 5.58097656 4.63449219 6.09960938 5.34570312 C6.88561523 6.44301758 6.88561523 6.44301758 7.6875 7.5625 C16.65985598 20.08712974 26.59710137 28.21393886 40.62890625 34.73828125 C43 36 43 36 44 38 C30.57140146 36.53727822 16.99619234 25.04233565 8.625 15.0625 C5.04226116 10.36660568 2.38562579 5.39059675 0 0 Z " fill="#00EEEC" transform="translate(183,229)"/>
<path d="M0 0 C14.85588656 2.24343038 28.36302932 15.38476357 37 27 C38.89815354 29.89219904 40.77189637 32.75703885 42 36 C41.67 36.99 41.34 37.98 41 39 C38.44736768 35.68238323 36.1406089 32.22774144 33.8125 28.75 C25.07152109 16.00770589 14.28388344 7.89278081 0 2 C0 1.34 0 0.68 0 0 Z " fill="#00F0ED" transform="translate(275,127)"/>
<path d="M0 0 C0 6.5344676 -6.4212636 12.38118285 -10.76953125 16.83984375 C-15.29644971 21.05712347 -19.34008423 24.41071302 -25 27 C-23.41568547 23.09148801 -20.73364905 20.47632644 -17.7734375 17.578125 C-17.26575836 17.07327576 -16.75807922 16.56842651 -16.23501587 16.04827881 C-14.61966158 14.44407904 -12.99747791 12.84699144 -11.375 11.25 C-10.27558302 10.16061893 -9.17661941 9.0707801 -8.078125 7.98046875 C-5.3906398 5.31498115 -2.69700979 2.65584857 0 0 Z " fill="#04BEBF" transform="translate(312,232)"/>
<path d="M0 0 C0.79027588 0.00080566 1.58055176 0.00161133 2.39477539 0.00244141 C9.39901925 0.07576922 16.22492276 0.21244851 22.1875 4.1875 C21.3625 4.1153125 20.5375 4.043125 19.6875 3.96875 C1.20824384 2.43639834 1.20824384 2.43639834 -16.9375 5.375 C-18.21625 5.643125 -19.495 5.91125 -20.8125 6.1875 C-21.8025 5.5275 -22.7925 4.8675 -23.8125 4.1875 C-15.85309932 0.97581201 -8.54820353 -0.00906202 0 0 Z " fill="#01F4F2" transform="translate(249.8125,121.8125)"/>
<path d="M0 0 C-0.59683594 0.40992188 -1.19367188 0.81984375 -1.80859375 1.2421875 C-4.68020664 3.5456203 -6.45779022 6.24921342 -8.53515625 9.2578125 C-10 11 -10 11 -13 12 C-13.66 12 -14.32 12 -15 12 C-16.33783393 12.31478446 -17.67203709 12.64587656 -19 13 C-18.125 6.125 -18.125 6.125 -17 5 C-14.67182036 4.63239269 -12.3381615 4.29758419 -10 4 C-10.99 3.34 -11.98 2.68 -13 2 C-11.21089097 1.47044766 -9.41860852 0.9516063 -7.625 0.4375 C-6.62726563 0.14746094 -5.62953125 -0.14257812 -4.6015625 -0.44140625 C-2 -1 -2 -1 0 0 Z " fill="#02DBDA" transform="translate(276,265)"/>
<path d="M0 0 C5.51639835 0.56578445 10.73280235 2.34489244 16 4 C11.00934748 7.32710168 5.07888388 9.58827908 -1 9 C-1.09765625 2.84765625 -1.09765625 2.84765625 -1 1 C-0.67 0.67 -0.34 0.34 0 0 Z " fill="#06EEEC" transform="translate(337,192)"/>
<path d="M0 0 C1.32719366 0.85254809 2.63636625 1.733186 3.9375 2.625 C4.66839844 3.11226563 5.39929688 3.59953125 6.15234375 4.1015625 C8 6 8 6 9 12 C3.06 11.01 3.06 11.01 -3 10 C-3.33 8.35 -3.66 6.7 -4 5 C-4.33 4.01 -4.66 3.02 -5 2 C-1.89448334 2 -0.64738916 2.5393715 2 4 C1.34 2.68 0.68 1.36 0 0 Z " fill="#02DBDA" transform="translate(262,113)"/>
<path d="M0 0 C1.65 0 3.3 0 5 0 C4.814375 0.61875 4.62875 1.2375 4.4375 1.875 C3.76313824 4.04160178 3.76313824 4.04160178 5 6 C3.5273138 9.27263601 2.57304568 10.72014048 -0.6875 12.3125 C-1.450625 12.539375 -2.21375 12.76625 -3 13 C-3.36279456 11.71073008 -3.71496698 10.41846728 -4.0625 9.125 C-4.25972656 8.40570313 -4.45695312 7.68640625 -4.66015625 6.9453125 C-5 5 -5 5 -4 3 C-4.66 2.67 -5.32 2.34 -6 2 C-5.01 2 -4.02 2 -3 2 C-2.67 2.66 -2.34 3.32 -2 4 C-1.34 2.68 -0.68 1.36 0 0 Z " fill="#02DCDB" transform="translate(325,204)"/>
<path d="M0 0 C2.64 0 5.28 0 8 0 C7.44854729 5.23880078 6.57077907 9.97350697 5 15 C4.34 15 3.68 15 3 15 C2.491217 13.44033782 1.99336531 11.87710759 1.5 10.3125 C1.2215625 9.44238281 0.943125 8.57226562 0.65625 7.67578125 C0.00149195 5.00608323 -0.11831495 2.73603316 0 0 Z " fill="#09F1EF" transform="translate(246,283)"/>
<path d="M0 0 C0.64839844 0.0721875 1.29679688 0.144375 1.96484375 0.21875 C13.95314528 1.35299141 25.9709082 1.09139579 38 1 C37.67 1.66 37.34 2.32 37 3 C31.74566679 4.06994853 26.53686263 4.1931715 21.1875 4.1875 C20.39794922 4.18669434 19.60839844 4.18588867 18.79492188 4.18505859 C4.03037663 4.03037663 4.03037663 4.03037663 0 0 Z " fill="#00F9F6" transform="translate(229,267)"/>
<path d="M0 0 C0.58265625 0.13277344 1.1653125 0.26554688 1.765625 0.40234375 C8.49048942 1.85093876 15.14015858 2.55210657 22 3 C22 3.33 22 3.66 22 4 C19.31275296 4.48062124 16.62521967 4.95953496 13.9375 5.4375 C12.80924805 5.63956055 12.80924805 5.63956055 11.65820312 5.84570312 C7.11474542 6.6521177 2.57195693 7.37461944 -2 8 C-1.34 5.36 -0.68 2.72 0 0 Z " fill="#06E0DF" transform="translate(290,193)"/>
<path d="M0 0 C1.010625 0.0825 2.02125 0.165 3.0625 0.25 C5.0625 3.25 5.0625 3.25 4.75 5.875 C4.0625 8.25 4.0625 8.25 3.0625 9.25 C0.125 9.5 0.125 9.5 -2.9375 9.25 C-4.9375 6.25 -4.9375 6.25 -4.625 3.625 C-3.63837192 0.21664846 -3.64560971 0.31026466 0 0 Z " fill="#00BFFB" transform="translate(249.9375,191.75)"/>
<path d="M0 0 C0.33 0 0.66 0 1 0 C1.13277344 1.01320312 1.26554688 2.02640625 1.40234375 3.0703125 C1.58067584 4.42188204 1.75906425 5.77344414 1.9375 7.125 C2.02451172 7.79015625 2.11152344 8.4553125 2.20117188 9.140625 C2.72630558 13.10830188 3.31814014 17.05626998 4 21 C1.69 21 -0.62 21 -3 21 C-2.69073032 18.24960167 -2.3777116 15.49971822 -2.0625 12.75 C-1.97548828 11.97269531 -1.88847656 11.19539062 -1.79882812 10.39453125 C-1.71181641 9.64042969 -1.62480469 8.88632813 -1.53515625 8.109375 C-1.456604 7.41811523 -1.37805176 6.72685547 -1.29711914 6.01464844 C-0.99455017 3.96304687 -0.53587616 2.00217465 0 0 Z " fill="#07DDDC" transform="translate(250,135)"/>
<path d="M0 0 C0.66 0.33 1.32 0.66 2 1 C-5.26 8.26 -12.52 15.52 -20 23 C-20 17.33389801 -14.80139215 12.94546439 -11 9 C-7.513747 5.77939858 -3.78238318 2.86329941 0 0 Z " fill="#04BABC" transform="translate(210,135)"/>
<path d="M0 0 C0.99 0.33 1.98 0.66 3 1 C-5.40596449 11.74211343 -5.40596449 11.74211343 -10 16 C-11.07121094 17.00933594 -11.07121094 17.00933594 -12.1640625 18.0390625 C-12.95554687 18.76867187 -13.74703125 19.49828125 -14.5625 20.25 C-15.30628906 20.93578125 -16.05007813 21.6215625 -16.81640625 22.328125 C-18.96702962 23.97475613 -20.35532825 24.59220481 -23 25 C-23 24.34 -23 23.68 -23 23 C-21.39585164 21.77664947 -19.73894748 20.62223096 -18.0625 19.5 C-10.5863116 14.20396461 -4.53947516 7.98663911 0 0 Z " fill="#00F8F6" transform="translate(311,235)"/>
<path d="M0 0 C1.98 0 3.96 0 6 0 C5.93941406 0.59425781 5.87882813 1.18851563 5.81640625 1.80078125 C5.16982122 8.19699929 4.57215654 14.59671614 4 21 C3.67 21 3.34 21 3 21 C2.01 14.07 1.02 7.14 0 0 Z " fill="#06DFDE" transform="translate(247,238)"/>
<path d="M0 0 C1.375 2.0625 1.375 2.0625 2 4 C1.34 4 0.68 4 0 4 C0 3.34 0 2.68 0 2 C-2.64 2 -5.28 2 -8 2 C-8.04241723 4.33294775 -8.04092937 6.66702567 -8 9 C-6.8963377 10.32890384 -6.8963377 10.32890384 -4.125 10.125 C-0.96787587 10.14376866 -0.96787587 10.14376866 2 9 C1 12 1 12 -1 13 C-4.56500476 13.38750052 -6.38480006 13.39435894 -9.4375 11.4375 C-11 9 -11 9 -11 5.4375 C-10 2 -10 2 -8.3125 0 C-5.11198408 -1.38400688 -3.28506223 -1.07121594 0 0 Z " fill="#039ACC" transform="translate(263,389)"/>
<path d="M0 0 C2.31 0 4.62 0 7 0 C7 0.66 7 1.32 7 2 C5.35 2 3.7 2 2 2 C2 3.32 2 4.64 2 6 C3.65 6 5.3 6 7 6 C7 6.66 7 7.32 7 8 C5.35 8 3.7 8 2 8 C2 9.32 2 10.64 2 12 C3.65 12 5.3 12 7 12 C7 12.66 7 13.32 7 14 C4.69 14 2.38 14 0 14 C0 9.38 0 4.76 0 0 Z " fill="#039CCE" transform="translate(231,388)"/>
<path d="M0 0 C0 2.31 0 4.62 0 7 C-2.10544013 6.71767279 -4.20933589 6.4238102 -6.3125 6.125 C-7.48425781 5.96257812 -8.65601563 5.80015625 -9.86328125 5.6328125 C-13 5 -13 5 -16 3 C-13.70887834 2.49750857 -11.41708499 1.99807883 -9.125 1.5 C-7.84882813 1.2215625 -6.57265625 0.943125 -5.2578125 0.65625 C-2 0 -2 0 0 0 Z " fill="#06DCDB" transform="translate(209,193)"/>
<path d="M0 0 C0.33 0 0.66 0 1 0 C1 1.65 1 3.3 1 5 C3.31 5 5.62 5 8 5 C8 3.35 8 1.7 8 0 C8.66 0 9.32 0 10 0 C10 4.29 10 8.58 10 13 C9.34 13 8.68 13 8 13 C8 11.02 8 9.04 8 7 C5.69 7 3.38 7 1 7 C1 8.98 1 10.96 1 13 C0.67 13 0.34 13 0 13 C0 8.71 0 4.42 0 0 Z " fill="#02A6DB" transform="translate(280,389)"/>
<path d="M0 0 C-0.33 3.63 -0.66 7.26 -1 11 C-2.65 10.67 -4.3 10.34 -6 10 C-5.51171875 3.9453125 -5.51171875 3.9453125 -5 2 C-2 0 -2 0 0 0 Z " fill="#0AB8BA" transform="translate(214,191)"/>
<path d="M0 0 C2.64 0 5.28 0 8 0 C8 0.66 8 1.32 8 2 C7.01 2 6.02 2 5 2 C5 5.96 5 9.92 5 14 C4.34 14 3.68 14 3 14 C3 10.04 3 6.08 3 2 C2.01 2 1.02 2 0 2 C0 1.34 0 0.68 0 0 Z " fill="#039BCD" transform="translate(209,388)"/>
<path d="M0 0 C0 0.66 0 1.32 0 2 C-1.93108963 3.03290841 -3.870118 4.05098672 -5.8125 5.0625 C-6.89144531 5.63097656 -7.97039062 6.19945312 -9.08203125 6.78515625 C-12 8 -12 8 -15 7 C-10.60214479 3.13521815 -6.02718405 0 0 0 Z " fill="#00EEEC" transform="translate(225,127)"/>
<path d="M0 0 C0.33 0.99 0.66 1.98 1 3 C0.34 3.66 -0.32 4.32 -1 5 C-1.66 4.67 -2.32 4.34 -3 4 C-3 4.66 -3 5.32 -3 6 C-6.3 6 -9.6 6 -13 6 C-13.33 4.68 -13.66 3.36 -14 2 C-12.205625 2.3403125 -12.205625 2.3403125 -10.375 2.6875 C-6.1290804 3.24657126 -3.66446727 2.29029204 0 0 Z " fill="#09A7AA" transform="translate(257,228)"/>
<path d="M0 0 C1.4800841 0.11362262 2.95910074 0.24122908 4.4375 0.375 C5.26121094 0.44460937 6.08492187 0.51421875 6.93359375 0.5859375 C7.95646484 0.79089844 7.95646484 0.79089844 9 1 C9.33 1.66 9.66 2.32 10 3 C7.26094655 4.36952673 5.02912668 4.12621361 2 4 C1.34 3.67 0.68 3.34 0 3 C0 2.01 0 1.02 0 0 Z " fill="#08ACAF" transform="translate(244,160)"/>
<path d="M0 0 C0.66 0.66 1.32 1.32 2 2 C0.02 4.97 -1.96 7.94 -4 11 C-4.33 9.68 -4.66 8.36 -5 7 C-4.01 6.67 -3.02 6.34 -2 6 C-0.77479736 2.99152582 -0.77479736 2.99152582 0 0 Z " fill="#00F5F2" transform="translate(171,167)"/>
<path d="M0 0 C3.26739717 1.63369858 3.71704704 4.70894675 5 8 C5.37308631 9.32276056 5.73046415 10.65232077 6 12 C5.34 11.67 4.68 11.34 4 11 C4 10.34 4 9.68 4 9 C3.01 8.67 2.02 8.34 1 8 C0 2.25 0 2.25 0 0 Z " fill="#02D6D6" transform="translate(181,220)"/>
<path d="M0 0 C0.99 0 1.98 0 3 0 C3 3.69418201 1.71820705 5.77836178 0 9 C-0.33 9 -0.66 9 -1 9 C-1.125 2.25 -1.125 2.25 0 0 Z " fill="#00F8F5" transform="translate(165,182)"/>
<path d="M0 0 C-2.15341979 2.15341979 -3.03923709 2.64111965 -6 3 C-6.99 2.34 -7.98 1.68 -9 1 C-5.64919071 -1.10976881 -3.77897651 -1.0497157 0 0 Z " fill="#01E6E4" transform="translate(235,125)"/>
<path d="M0 0 C4.29 0.33 8.58 0.66 13 1 C13 1.33 13 1.66 13 2 C4.57142857 3.42857143 4.57142857 3.42857143 0 1 C0 0.67 0 0.34 0 0 Z " fill="#01F0EE" transform="translate(229,267)"/>
</svg>
